# xmcd CD database file
#
# Track frame offsets:
#	150
#	13207
#	36425
#	50301
#	59048
#	75403
#	82587
#	93493
#	112747
#	121980
#	136223
#	150922
#	173828
#	191811
#	205080
#	217454
#	231150
#	261899
#	281102
#	284916
#	292168
#	334752
#
# Disc length: 4585 seconds
#
# Revision: 0
# Processed by: cddbd v1.5.1PL2 Copyright (c) Steve Scherf et al.
# Submitted via: CDex 1.51
#
DISCID=4d11e716
DTITLE=Ry Cooder - Ultimate Collection
DYEAR=1900
DGENRE=Blues
TTITLE0=Paris, Texas
TTITLE1=Theme from Alamo Bay
TTITLE2=Across the Border
TTITLE3=Highway
TTITLE4=Greenhouse
TTITLE5=Nice Bike
TTITLE6=I Like Your Eyes
TTITLE7=Feelin' Bad Blues
TTITLE8=Angola
TTITLE9=Viola Lee Blues
TTITLE10=The Long Riders
TTITLE11=Jessie James
TTITLE12=King of the Street
TTITLE13=Sunny's Tune
TTITLE14=No Quiero
TTITLE15=Cruising with Rafe
TTITLE16=I Can't Walk This Time - The Prestige
TTITLE17=Cancion Mixteca
TTITLE18=Maria
TTITLE19=Bound for Canaan
TTITLE20=Train to Florida
TTITLE21=Houston In Two Seconds
EXTD=
EXTT0=
EXTT1=
EXTT2=
EXTT3=
EXTT4=
EXTT5=
EXTT6=
EXTT7=
EXTT8=
EXTT9=
EXTT10=
EXTT11=
EXTT12=
EXTT13=
EXTT14=
EXTT15=
EXTT16=
EXTT17=
EXTT18=
EXTT19=
EXTT20=
EXTT21=
PLAYORDER=
